<svg width="60" height="60" viewBox="0 0 60 60" fill="none" xmlns="http://www.w3.org/2000/svg">
<path d="M56.2501 17.8125L45.2126 2.37498C45.016 2.10477 44.7585 1.88471 44.461 1.73268C44.1634 1.58065 43.8342 1.50092 43.5001 1.49999H11.0001C10.7201 1.49332 10.4417 1.54271 10.1811 1.64526C9.92052 1.7478 9.68307 1.90143 9.48274 2.0971C9.28242 2.29277 9.12324 2.52653 9.0146 2.78463C8.90595 3.04273 8.85002 3.31995 8.8501 3.59999V55.5C8.8501 56.0569 9.07135 56.5911 9.46517 56.9849C9.859 57.3787 10.3931 57.6 10.9501 57.6H54.5501C55.1071 57.6 55.6412 57.3787 56.035 56.9849C56.4288 56.5911 56.6501 56.0569 56.6501 55.5V19.0375C56.6468 18.5976 56.507 18.1696 56.2501 17.8125ZM16.0626 14.7H40.1001V15.95H16.0626V14.7ZM50.5876 43.6625H15.4876V42.4125H50.5876V43.6625ZM50.5876 34.425H15.4876V33.175H50.5876V34.425ZM50.5876 25.1875H15.4876V23.9375H50.5876V25.1875ZM55.1626 19.0625H55.0876C55.0984 19.1282 55.0949 19.1954 55.0773 19.2596C55.0598 19.3238 55.0286 19.3834 54.9859 19.4344C54.9431 19.4855 54.8899 19.5267 54.8298 19.5552C54.7697 19.5838 54.7041 19.5991 54.6376 19.6H42.8876V2.83748C42.8938 2.75913 42.9205 2.68378 42.9649 2.61893C43.0093 2.55408 43.0699 2.50199 43.1407 2.46785C43.2115 2.43372 43.2901 2.41872 43.3685 2.42436C43.4468 2.42999 43.5224 2.45607 43.5876 2.49998C43.6274 2.45044 43.6779 2.41046 43.7352 2.38298C43.7925 2.35551 43.8553 2.34125 43.9188 2.34125C43.9824 2.34125 44.0452 2.35551 44.1025 2.38298C44.1598 2.41046 44.2103 2.45044 44.2501 2.49998L55.5001 18.325C55.5496 18.3915 55.5803 18.4701 55.5891 18.5525C55.5978 18.635 55.5842 18.7183 55.5497 18.7937C55.5152 18.869 55.4611 18.9338 55.393 18.9811C55.3249 19.0284 55.2453 19.0565 55.1626 19.0625Z" fill="white"/>
<path d="M44.2499 2.49998C44.2101 2.45043 44.1596 2.41045 44.1023 2.38298C44.045 2.35551 43.9822 2.34125 43.9187 2.34125C43.8551 2.34125 43.7923 2.35551 43.735 2.38298C43.6777 2.41045 43.6272 2.45043 43.5874 2.49998C43.6474 2.52193 43.6995 2.56106 43.7374 2.61248L54.9874 18.8625C55.0285 18.9219 55.0543 18.9906 55.0624 19.0625H55.1374C55.2212 19.0614 55.3032 19.0376 55.3745 18.9936C55.4459 18.9496 55.5039 18.887 55.5424 18.8125C55.581 18.738 55.5985 18.6545 55.5932 18.5708C55.5879 18.4872 55.56 18.4065 55.5124 18.3375L44.2499 2.49998Z" fill="white"/>
<path d="M43.7501 2.5625C43.7026 2.52728 43.6464 2.50567 43.5876 2.5C43.5337 2.53534 43.4895 2.58358 43.4589 2.64032C43.4284 2.69707 43.4124 2.76055 43.4126 2.825V19.075H55.0876C55.0795 19.0032 55.0537 18.9344 55.0126 18.875L43.7501 2.5625Z" fill="white"/>
</svg>
