<svg width="209" height="136" viewBox="0 0 209 136" fill="none" xmlns="http://www.w3.org/2000/svg">
<g filter="url(#filter0_d_64_47)">
<path d="M200.313 1H8.28163C6.46924 1 5 2.46751 5 4.27778V55.0833C5 56.8936 6.46924 58.3611 8.28163 58.3611H200.313C202.125 58.3611 203.595 56.8936 203.595 55.0833V4.27778C203.595 2.46751 202.125 1 200.313 1Z" stroke="white" stroke-width="2"/>
<path d="M76.061 15.6318C76.061 16.7608 75.7785 17.7487 75.072 18.4543C74.2242 19.3011 73.2352 19.7245 71.9636 19.7245C70.6919 19.7245 69.7029 19.3011 68.8551 18.4543C68.0074 17.6075 67.5835 16.6197 67.5835 15.3495C67.5835 14.0794 68.0074 13.0916 68.8551 12.2447C69.7029 11.398 70.6919 10.9746 71.9636 10.9746C72.5288 10.9746 73.0939 11.1157 73.659 11.398C74.2242 11.6802 74.6481 11.9625 74.9307 12.3859L74.2242 13.0915C73.659 12.3859 72.9526 12.1036 71.9636 12.1036C71.1158 12.1036 70.268 12.3859 69.7029 13.0915C68.9964 13.656 68.7139 14.5028 68.7139 15.4906C68.7139 16.4786 68.9964 17.3253 69.7029 17.8898C70.4093 18.4543 71.1158 18.8777 71.9636 18.8777C72.9526 18.8777 73.659 18.5954 74.3656 17.8898C74.7894 17.4664 75.072 16.9019 75.072 16.1963H71.9636V15.2084H76.061C76.061 15.2084 76.061 15.3495 76.061 15.6318Z" fill="white" stroke="white" stroke-width="0.2" stroke-miterlimit="10"/>
<path d="M82.561 12.1036H78.7461V14.785H82.2783V15.7729H78.7461V18.4543H82.561V19.4422H77.6157V10.9746H82.561V12.1036Z" fill="white" stroke="white" stroke-width="0.2" stroke-miterlimit="10"/>
<path d="M87.2238 19.4422H86.0932V11.9625H83.6912V10.9746H89.6252V11.9625H87.2238V19.4422Z" fill="white" stroke="white" stroke-width="0.2" stroke-miterlimit="10"/>
<path d="M93.7231 19.4422V10.9746H94.8529V19.4422H93.7231Z" fill="white" stroke="white" stroke-width="0.2" stroke-miterlimit="10"/>
<path d="M99.6571 19.4422H98.5274V11.9625H96.1252V10.9746H101.918V11.9625H99.516V19.4422H99.6571Z" fill="white" stroke="white" stroke-width="0.2" stroke-miterlimit="10"/>
<path d="M113.08 18.4543C112.233 19.3011 111.243 19.7245 109.971 19.7245C108.7 19.7245 107.711 19.3011 106.863 18.4543C106.015 17.6075 105.591 16.6197 105.591 15.3495C105.591 14.0794 106.015 13.0916 106.863 12.2447C107.711 11.398 108.7 10.9746 109.971 10.9746C111.243 10.9746 112.233 11.398 113.08 12.2447C113.927 13.0916 114.352 14.0794 114.352 15.3495C114.352 16.4786 113.927 17.6075 113.08 18.4543ZM107.711 17.7487C108.277 18.3132 109.124 18.7366 109.971 18.7366C110.82 18.7366 111.667 18.4543 112.233 17.7487C112.798 17.1842 113.221 16.3375 113.221 15.3495C113.221 14.3616 112.939 13.5149 112.233 12.9504C111.667 12.3859 110.82 11.9625 109.971 11.9625C109.124 11.9625 108.277 12.2447 107.711 12.9504C107.146 13.5149 106.722 14.3616 106.722 15.3495C106.722 16.1963 107.005 17.0431 107.711 17.7487Z" fill="white" stroke="white" stroke-width="0.2" stroke-miterlimit="10"/>
<path d="M115.906 19.4422V10.9746H117.178L121.275 17.6075V15.9141V10.9746H122.406V19.4422H121.275L116.895 12.527V14.2205V19.4422H115.906Z" fill="white" stroke="white" stroke-width="0.2" stroke-miterlimit="10"/>
<path d="M105.308 31.8612C101.917 31.8612 99.233 34.4015 99.233 37.9297C99.233 41.3167 101.917 43.9981 105.308 43.9981C108.699 43.9981 111.384 41.4578 111.384 37.9297C111.384 34.4015 108.699 31.8612 105.308 31.8612ZM105.308 41.4578C103.471 41.4578 101.917 39.9054 101.917 37.7886C101.917 35.6716 103.471 34.1192 105.308 34.1192C107.145 34.1192 108.699 35.5305 108.699 37.7886C108.699 40.0465 107.145 41.4578 105.308 41.4578ZM92.1676 31.8612C88.7769 31.8612 86.0924 34.4015 86.0924 37.9297C86.0924 41.3167 88.7769 43.9981 92.1676 43.9981C95.5592 43.9981 98.2435 41.4578 98.2435 37.9297C98.2435 34.4015 95.5592 31.8612 92.1676 31.8612ZM92.1676 41.4578C90.3315 41.4578 88.7769 39.9054 88.7769 37.7886C88.7769 35.6716 90.3315 34.1192 92.1676 34.1192C94.0045 34.1192 95.5592 35.5305 95.5592 37.7886C95.5592 40.0465 94.0045 41.4578 92.1676 41.4578ZM76.4845 33.6958V36.2361H82.56C82.4188 37.6474 81.8536 38.7764 81.1471 39.482C80.2994 40.3287 78.8864 41.3167 76.4845 41.3167C72.6696 41.3167 69.8437 38.353 69.8437 34.5426C69.8437 30.7322 72.8109 27.7685 76.4845 27.7685C78.4626 27.7685 80.0168 28.6153 81.1471 29.6032L82.984 27.7685C81.4297 26.3573 79.4516 25.2283 76.6258 25.2283C71.5393 25.2283 67.1592 29.4621 67.1592 34.5426C67.1592 39.6231 71.5393 43.8569 76.6258 43.8569C79.4516 43.8569 81.4297 43.0102 83.1252 41.1756C84.8208 39.482 85.3859 37.0828 85.3859 35.2483C85.3859 34.6838 85.3859 34.1192 85.2446 33.6958H76.4845ZM140.632 35.6716C140.066 34.2604 138.653 31.8612 135.545 31.8612C132.437 31.8612 129.893 34.2604 129.893 37.9297C129.893 41.3167 132.437 43.9981 135.827 43.9981C138.512 43.9981 140.207 42.3046 140.773 41.3167L138.795 39.9054C138.088 40.8933 137.24 41.5989 135.827 41.5989C134.415 41.5989 133.566 41.0345 132.86 39.7643L140.914 36.3772L140.632 35.6716ZM132.437 37.6474C132.437 35.3894 134.273 34.1192 135.545 34.1192C136.534 34.1192 137.523 34.6838 137.805 35.3894L132.437 37.6474ZM125.795 43.4335H128.48V25.7928H125.795V43.4335ZM121.557 33.1313C120.85 32.4257 119.72 31.7201 118.307 31.7201C115.34 31.7201 112.514 34.4015 112.514 37.7886C112.514 41.1756 115.199 43.7158 118.307 43.7158C119.72 43.7158 120.85 43.0102 121.415 42.3046H121.557V43.1513C121.557 45.4093 120.285 46.6794 118.307 46.6794C116.753 46.6794 115.622 45.5505 115.34 44.5626L113.079 45.5505C113.785 47.1028 115.481 49.0786 118.449 49.0786C121.557 49.0786 124.1 47.244 124.1 42.8691V32.1435H121.557V33.1313ZM118.449 41.4578C116.612 41.4578 115.057 39.9054 115.057 37.7886C115.057 35.6716 116.612 34.1192 118.449 34.1192C120.285 34.1192 121.698 35.6716 121.698 37.7886C121.698 39.9054 120.285 41.4578 118.449 41.4578ZM152.924 25.7928H146.566V43.4335H149.25V36.8006H152.924C155.89 36.8006 158.717 34.6838 158.717 31.2967C158.717 27.9097 155.89 25.7928 152.924 25.7928ZM153.065 34.4015H149.25V28.3331H153.065C155.043 28.3331 156.173 30.0266 156.173 31.2967C156.032 32.708 154.902 34.4015 153.065 34.4015ZM169.314 31.8612C167.335 31.8612 165.357 32.708 164.651 34.5426L167.053 35.5305C167.618 34.5427 168.466 34.2603 169.455 34.2603C170.868 34.2603 172.139 35.1072 172.28 36.5184V36.6595C171.857 36.3772 170.727 35.9539 169.596 35.9539C167.053 35.9539 164.51 37.3651 164.51 39.9054C164.51 42.3046 166.629 43.8569 168.89 43.8569C170.727 43.8569 171.574 43.0102 172.28 42.1635H172.422V43.5747H174.965V36.8006C174.683 33.5547 172.28 31.8612 169.314 31.8612ZM169.031 41.4578C168.183 41.4578 166.912 41.0345 166.912 39.9054C166.912 38.4942 168.466 38.0708 169.737 38.0708C170.868 38.0708 171.433 38.3531 172.139 38.6353C171.857 40.3288 170.444 41.4578 169.031 41.4578ZM183.866 32.1435L180.9 39.7643H180.759L177.65 32.1435H174.824L179.487 42.8691L176.802 48.7964H179.487L186.693 32.1435H183.866ZM160.129 43.4335H162.814V25.7928H160.129V43.4335Z" fill="white"/>
<path d="M23.0762 46.9617C22.5111 46.6795 22.2285 45.9739 22.2285 45.2683C22.2285 45.1271 22.2285 44.8449 22.2285 44.7038C22.2285 34.2604 22.2285 23.817 22.2285 13.5148C22.2285 12.9503 22.3698 12.527 22.5111 11.9625C22.6524 11.6802 22.935 11.3979 23.2176 11.1157C29.2931 17.1841 35.2274 23.2525 41.1617 29.321C35.0861 34.966 29.1519 40.8934 23.0762 46.9617Z" fill="white"/>
<path d="M47.0957 23.1115C45.4002 24.805 43.5633 26.4985 41.8679 28.3331C36.2162 22.547 30.4232 16.7608 24.7715 10.9746C24.7715 10.9746 24.7715 10.8335 24.9128 10.8335C32.26 14.9261 39.6072 19.0188 47.0957 23.1115Z" fill="white"/>
<path d="M24.7715 46.9617C30.4232 41.3167 36.2162 35.6717 41.8679 30.0266C43.4221 31.579 45.1176 33.1314 46.9544 34.8249C39.6072 38.9176 32.26 43.0102 24.9128 46.9617H24.7715Z" fill="white"/>
<path d="M47.944 34.2605C46.1072 32.567 44.4118 30.8735 42.575 29.18C44.4118 27.3453 46.2486 25.5107 48.0853 23.676C48.6505 23.9582 49.2157 24.2405 49.7808 24.6639C51.1937 25.5107 52.748 26.2163 54.1609 27.063C54.5848 27.2041 54.8674 27.4864 55.1499 27.9098C55.7151 28.6154 55.7151 29.3211 55.1499 30.0267C54.8674 30.3089 54.5848 30.5912 54.1609 30.7323C52.1828 32.0025 50.0635 33.1315 47.944 34.2605Z" fill="white"/>
<path d="M200.313 69H8.28163C6.46924 69 5 70.4675 5 72.2778V123.083C5 124.894 6.46924 126.361 8.28163 126.361H200.313C202.125 126.361 203.595 124.894 203.595 123.083V72.2778C203.595 70.4675 202.125 69 200.313 69Z" stroke="white" stroke-width="2"/>
<path d="M51.6034 96.3018C51.5654 91.7644 55.3243 89.5527 55.4993 89.4539C53.3687 86.3529 50.0663 85.9273 48.9021 85.8969C46.1248 85.6081 43.4387 87.5538 42.0234 87.5538C40.5852 87.5538 38.4089 85.9273 36.0577 85.973C33.0368 86.0185 30.2138 87.7666 28.6691 90.4724C25.4732 95.9978 27.8549 104.115 30.9215 108.584C32.4509 110.773 34.2391 113.213 36.5828 113.129C38.8731 113.038 39.733 111.67 42.4951 111.67C45.2345 111.67 46.041 113.129 48.4304 113.076C50.8881 113.038 52.4404 110.879 53.9166 108.675C55.6896 106.167 56.3973 103.697 56.4277 103.575C56.3668 103.537 51.6491 101.736 51.6034 96.3018ZM47.0911 82.9556C48.3238 81.4128 49.1684 79.3227 48.9325 77.1946C47.152 77.2705 44.9148 78.4258 43.6365 79.9307C42.5028 81.2607 41.4831 83.4344 41.7495 85.4789C43.743 85.6233 45.8051 84.4681 47.0911 82.9556Z" fill="white"/>
<path d="M84.7949 112.802H81.5914L79.8337 107.299H73.7386L72.0646 112.802H68.9448L74.9866 94.0597H78.7151L84.7949 112.802ZM79.3086 104.989L77.7183 100.094C77.5509 99.5927 77.2313 98.4147 76.7747 96.5602H76.7215C76.5389 97.3583 76.2345 98.5363 75.8312 100.094L74.2713 104.989H79.3086ZM100.303 105.878C100.303 108.174 99.6786 109.99 98.4308 111.328C97.3118 112.513 95.9195 113.106 94.2607 113.106C92.4648 113.106 91.1792 112.468 90.3957 111.191V118.282H87.3897V103.727C87.3897 102.283 87.352 100.801 87.2757 99.2887H89.9232L90.0913 101.432H90.1438C91.1488 99.8208 92.6707 99.0075 94.7094 99.0075C96.3076 99.0075 97.6391 99.6384 98.7048 100.9C99.7697 102.162 100.303 103.826 100.303 105.878ZM97.2437 105.992C97.2437 104.677 96.9467 103.591 96.3535 102.739C95.7062 101.85 94.8317 101.409 93.7356 101.409C92.998 101.409 92.3204 101.66 91.719 102.146C91.1185 102.64 90.7222 103.287 90.5401 104.077C90.4564 104.373 90.4105 104.685 90.4031 104.989V107.246C90.4031 108.227 90.7075 109.055 91.3088 109.739C91.9094 110.416 92.6937 110.758 93.6593 110.758C94.7931 110.758 95.6759 110.317 96.3076 109.45C96.9237 108.569 97.2437 107.421 97.2437 105.992ZM115.871 105.878C115.871 108.174 115.248 109.99 113.999 111.328C112.881 112.513 111.488 113.106 109.83 113.106C108.034 113.106 106.747 112.468 105.964 111.191V118.282H102.958V103.727C102.958 102.283 102.92 100.801 102.844 99.2887H105.492L105.659 101.432H105.713C106.717 99.8208 108.239 99.0075 110.278 99.0075C111.876 99.0075 113.208 99.6384 114.273 100.9C115.331 102.162 115.871 103.826 115.871 105.878ZM112.804 105.992C112.804 104.677 112.508 103.591 111.914 102.739C111.268 101.85 110.392 101.409 109.297 101.409C108.559 101.409 107.881 101.66 107.272 102.146C106.672 102.64 106.276 103.287 106.093 104.077C106.002 104.449 105.949 104.753 105.949 104.989V107.246C105.949 108.227 106.253 109.055 106.854 109.739C107.455 110.416 108.239 110.758 109.213 110.758C110.346 110.758 111.229 110.317 111.861 109.45C112.493 108.569 112.804 107.421 112.804 105.992ZM133.274 107.55C133.274 109.146 132.718 110.446 131.607 111.442C130.39 112.536 128.678 113.083 126.494 113.083C124.477 113.083 122.857 112.696 121.631 111.913L122.324 109.412C123.64 110.195 125.093 110.583 126.668 110.583C127.802 110.583 128.685 110.324 129.317 109.815C129.948 109.306 130.268 108.622 130.268 107.771C130.268 107.011 130.002 106.372 129.484 105.848C128.966 105.331 128.107 104.845 126.897 104.404C123.61 103.18 121.966 101.386 121.966 99.038C121.966 97.5026 122.544 96.241 123.708 95.2606C124.865 94.2801 126.403 93.7861 128.32 93.7861C130.025 93.7861 131.447 94.0825 132.581 94.6753L131.828 97.1227C130.762 96.545 129.568 96.2638 128.221 96.2638C127.163 96.2638 126.326 96.5222 125.732 97.039C125.23 97.5026 124.979 98.0651 124.979 98.7339C124.979 99.4711 125.269 100.087 125.847 100.566C126.349 101.006 127.254 101.493 128.571 102.01C130.184 102.663 131.371 103.416 132.132 104.29C132.893 105.164 133.274 106.251 133.274 107.55ZM143.241 101.546H139.924V108.105C139.924 109.777 140.51 110.606 141.682 110.606C142.222 110.606 142.663 110.56 143.021 110.469L143.104 112.749C142.511 112.969 141.735 113.083 140.769 113.083C139.582 113.083 138.653 112.718 137.983 111.996C137.314 111.274 136.979 110.058 136.979 108.356V101.546H135.009V99.2963H136.979V96.8187L139.932 95.9294V99.2963H143.249L143.241 101.546ZM158.163 105.939C158.163 108.014 157.57 109.724 156.383 111.054C155.142 112.43 153.492 113.114 151.429 113.114C149.443 113.114 147.86 112.453 146.681 111.145C145.502 109.83 144.916 108.166 144.916 106.167C144.916 104.069 145.525 102.359 146.742 101.022C147.96 99.6839 149.596 99.0227 151.657 99.0227C153.643 99.0227 155.242 99.6839 156.443 100.999C157.585 102.268 158.163 103.917 158.163 105.939ZM155.044 106.007C155.044 104.769 154.777 103.705 154.237 102.823C153.606 101.751 152.707 101.212 151.536 101.212C150.333 101.212 149.405 101.751 148.781 102.823C148.241 103.712 147.974 104.791 147.974 106.068C147.974 107.307 148.241 108.371 148.781 109.26C149.428 110.332 150.341 110.872 151.513 110.872C152.662 110.872 153.56 110.324 154.214 109.238C154.77 108.318 155.044 107.246 155.044 106.007ZM167.942 101.934C167.629 101.88 167.31 101.85 166.99 101.85C165.932 101.85 165.118 102.245 164.54 103.043C164.038 103.75 163.787 104.639 163.787 105.711V112.802H160.781V103.545C160.781 102.124 160.758 100.71 160.697 99.2887H163.315L163.421 101.873H163.505C163.825 100.984 164.319 100.269 165.012 99.7296C165.635 99.2583 166.404 99.0075 167.188 99.0075C167.47 99.0075 167.713 99.0303 167.942 99.0607V101.934ZM181.387 105.407C181.395 105.863 181.356 106.319 181.281 106.767H172.256C172.286 108.105 172.728 109.124 173.565 109.83C174.325 110.461 175.307 110.773 176.517 110.773C177.856 110.773 179.074 110.56 180.17 110.134L180.641 112.217C179.362 112.772 177.849 113.053 176.106 113.053C174.006 113.053 172.362 112.437 171.16 111.206C169.965 109.975 169.364 108.318 169.364 106.243C169.364 104.206 169.92 102.511 171.039 101.158C172.203 99.7143 173.785 98.9923 175.771 98.9923C177.719 98.9923 179.195 99.7143 180.2 101.158C180.984 102.306 181.387 103.72 181.387 105.407ZM178.518 104.632C178.541 103.743 178.343 102.975 177.932 102.321C177.415 101.485 176.608 101.067 175.535 101.067C174.554 101.067 173.755 101.478 173.138 102.291C172.636 102.937 172.34 103.72 172.248 104.624L178.518 104.632Z" fill="white"/>
<path d="M72.871 87.4399C72.034 87.4399 71.3112 87.4018 70.71 87.3334V78.2663C71.5547 78.137 72.4069 78.0686 73.2591 78.0762C76.7061 78.0762 78.2964 79.7711 78.2964 82.53C78.2888 85.7145 76.417 87.4399 72.871 87.4399ZM73.3808 79.2391C72.9167 79.2391 72.521 79.2695 72.1938 79.3378V86.2238C72.3688 86.2542 72.7113 86.2617 73.1906 86.2617C75.4505 86.2617 76.7365 84.9773 76.7365 82.5756C76.7289 80.4248 75.5647 79.2391 73.3808 79.2391ZM83.2424 87.5082C81.3021 87.5082 80.0389 86.0566 80.0389 84.0881C80.0389 82.036 81.3249 80.5768 83.349 80.5768C85.2665 80.5768 86.5527 81.96 86.5527 83.9816C86.5527 86.0566 85.2285 87.5082 83.2424 87.5082ZM83.2957 81.656C82.2304 81.656 81.5456 82.6516 81.5456 84.0501C81.5456 85.4181 82.2456 86.4138 83.2805 86.4138C84.323 86.4138 85.0154 85.3497 85.0154 84.0197C85.023 82.6668 84.3382 81.656 83.2957 81.656ZM97.6315 80.7135L95.5542 87.3562H94.1997L93.3399 84.4757C93.1266 83.7688 92.9445 83.0544 92.8075 82.3324H92.7771C92.6705 83.0544 92.4646 83.7841 92.2439 84.4757L91.3308 87.3562H89.9615L88.0056 80.7135H89.5275L90.2806 83.8677C90.4562 84.6201 90.608 85.3269 90.7302 86.0034H90.7606C90.8672 85.4409 91.0494 84.7493 91.3086 83.8829L92.2521 80.7135H93.454L94.3597 83.8145C94.5804 84.5669 94.7551 85.3041 94.8921 86.0034H94.9299C95.0292 85.3193 95.1735 84.5973 95.3795 83.8145L96.1859 80.7135H97.6315ZM105.294 87.3562H103.818V83.5409C103.818 82.3628 103.369 81.7776 102.478 81.7776C101.604 81.7776 101.003 82.53 101.003 83.404V87.3562H99.5266V82.6136C99.5266 82.0284 99.511 81.3976 99.4733 80.7135H100.774L100.843 81.7396H100.88C101.277 81.0328 102.083 80.5768 102.989 80.5768C104.381 80.5768 105.301 81.6408 105.301 83.3812L105.294 87.3562ZM109.365 87.3562H107.889V77.6658H109.365V87.3562ZM114.76 87.5082C112.82 87.5082 111.556 86.0566 111.556 84.0881C111.556 82.036 112.843 80.5768 114.867 80.5768C116.784 80.5768 118.07 81.96 118.07 83.9816C118.07 86.0566 116.739 87.5082 114.76 87.5082ZM114.813 81.656C113.748 81.656 113.063 82.6516 113.063 84.0501C113.063 85.4181 113.763 86.4138 114.798 86.4138C115.84 86.4138 116.533 85.3497 116.533 84.0197C116.533 82.6668 115.856 81.656 114.813 81.656ZM123.898 87.3562L123.792 86.5885H123.754C123.305 87.2042 122.643 87.5006 121.806 87.5006C120.611 87.5006 119.767 86.6646 119.767 85.5474C119.767 83.9057 121.19 83.0621 123.655 83.0621V82.9405C123.655 82.0664 123.191 81.6256 122.278 81.6256C121.624 81.6256 121.045 81.7928 120.543 82.1196L120.246 81.1468C120.863 80.7667 121.631 80.5691 122.529 80.5691C124.264 80.5691 125.146 81.4812 125.146 83.3128V85.7602C125.146 86.429 125.177 86.9534 125.246 87.3486L123.898 87.3562ZM123.693 84.0501C122.049 84.0501 121.228 84.4453 121.228 85.3877C121.228 86.087 121.654 86.429 122.24 86.429C122.994 86.429 123.693 85.8589 123.693 85.0761V84.0501ZM132.307 87.3562L132.239 86.2921H132.2C131.774 87.0978 131.059 87.5082 130.062 87.5082C128.457 87.5082 127.27 86.1022 127.27 84.1185C127.27 82.0436 128.503 80.5768 130.184 80.5768C131.075 80.5768 131.706 80.8732 132.056 81.4812H132.086V77.6658H133.562V85.5625C133.562 86.2009 133.578 86.809 133.615 87.3486H132.307V87.3562ZM132.094 83.4497C132.094 82.5224 131.477 81.7244 130.534 81.7244C129.438 81.7244 128.768 82.6972 128.768 84.0577C128.768 85.3953 129.461 86.315 130.504 86.315C131.431 86.315 132.094 85.5093 132.094 84.5517V83.4497ZM142.952 87.5082C141.012 87.5082 139.749 86.0566 139.749 84.0881C139.749 82.036 141.034 80.5768 143.059 80.5768C144.976 80.5768 146.262 81.96 146.262 83.9816C146.262 86.0566 144.939 87.5082 142.952 87.5082ZM143.006 81.656C141.94 81.656 141.255 82.6516 141.255 84.0501C141.255 85.4181 141.956 86.4138 142.99 86.4138C144.033 86.4138 144.725 85.3497 144.725 84.0197C144.733 82.6668 144.048 81.656 143.006 81.656ZM154.214 87.3562H152.737V83.5409C152.737 82.3628 152.289 81.7776 151.399 81.7776C150.523 81.7776 149.923 82.53 149.923 83.404V87.3562H148.446V82.6136C148.446 82.0284 148.431 81.3976 148.393 80.7135H149.694L149.763 81.7396H149.8C150.197 81.0328 151.003 80.5768 151.908 80.5768C153.301 80.5768 154.222 81.6408 154.222 83.3812V87.3562H154.214ZM164.152 81.8231H162.523V85.0457C162.523 85.8665 162.805 86.277 163.383 86.277C163.642 86.277 163.862 86.2466 164.038 86.2086L164.076 87.3258C163.787 87.4322 163.406 87.493 162.927 87.493C161.762 87.493 161.062 86.8546 161.062 85.1673V81.8156H160.088V80.7059H161.062V79.4899L162.516 79.0491V80.7059H164.144L164.152 81.8231ZM171.982 87.3562H170.505V83.5713C170.505 82.3856 170.056 81.7852 169.166 81.7852C168.397 81.7852 167.69 82.302 167.69 83.3585V87.3638H166.214V77.6658H167.69V81.656H167.721C168.185 80.934 168.862 80.5768 169.722 80.5768C171.129 80.5768 171.989 81.6711 171.989 83.404L171.982 87.3562ZM179.994 84.3921H175.558C175.588 85.6462 176.418 86.3606 177.651 86.3606C178.305 86.3606 178.913 86.2542 179.446 86.0489L179.675 87.075C179.043 87.3486 178.305 87.4854 177.445 87.4854C175.368 87.4854 174.135 86.1705 174.135 84.1413C174.135 82.1044 175.398 80.5768 177.278 80.5768C178.974 80.5768 180.04 81.8308 180.04 83.7309C180.055 83.9437 180.04 84.1717 179.994 84.3921ZM178.639 83.3357C178.639 82.3096 178.123 81.5876 177.179 81.5876C176.327 81.5876 175.657 82.3248 175.565 83.3357H178.639Z" fill="white"/>
</g>
<defs>
<filter id="filter0_d_64_47" x="0" y="0" width="208.594" height="135.361" filterUnits="userSpaceOnUse" color-interpolation-filters="sRGB">
<feFlood flood-opacity="0" result="BackgroundImageFix"/>
<feColorMatrix in="SourceAlpha" type="matrix" values="0 0 0 0 0 0 0 0 0 0 0 0 0 0 0 0 0 0 127 0" result="hardAlpha"/>
<feOffset dy="4"/>
<feGaussianBlur stdDeviation="2"/>
<feComposite in2="hardAlpha" operator="out"/>
<feColorMatrix type="matrix" values="0 0 0 0 0 0 0 0 0 0 0 0 0 0 0 0 0 0 0.25 0"/>
<feBlend mode="normal" in2="BackgroundImageFix" result="effect1_dropShadow_64_47"/>
<feBlend mode="normal" in="SourceGraphic" in2="effect1_dropShadow_64_47" result="shape"/>
</filter>
</defs>
</svg>
