<svg width="41" height="41" viewBox="0 0 41 41" fill="none" xmlns="http://www.w3.org/2000/svg">
<path d="M22.7778 0H18.2222V22.7778H22.7778V0ZM33.7794 4.94278L30.545 8.17722C34.1439 11.07 36.4444 15.5117 36.4444 20.5C36.4444 29.315 29.315 36.4444 20.5 36.4444C11.685 36.4444 4.55556 29.315 4.55556 20.5C4.55556 15.5117 6.85611 11.07 10.4322 8.15444L7.22056 4.94278C2.80167 8.70111 0 14.2589 0 20.5C0 31.8206 9.17945 41 20.5 41C31.8206 41 41 31.8206 41 20.5C41 14.2589 38.1983 8.70111 33.7794 4.94278Z" fill="white"/>
</svg>
